<svg xmlns="http://www.w3.org/2000/svg" style="display:none">
<symbol id="sofa" viewBox="0 0 24 24" fill="none" stroke="currentColor" stroke-width="2" stroke-linecap="round" stroke-linejoin="round"><path d="M4 11V7a2 2 0 0 1 2-2h12a2 2 0 0 1 2 2v4"></path><path d="M2 11h20v5a2 2 0 0 1-2 2H4a2 2 0 0 1-2-2z"></path><path d="M4 18v2M20 18v2"></path></symbol>
<symbol id="hard-hat" viewBox="0 0 24 24" fill="none" stroke="currentColor" stroke-width="2" stroke-linecap="round" stroke-linejoin="round"><path d="M3 17h18"></path><path d="M5 17a7 7 0 0 1 14 0"></path><path d="M12 6v5"></path><path d="M9 6h6"></path></symbol>
<symbol id="gem" viewBox="0 0 24 24" fill="none" stroke="currentColor" stroke-width="2" stroke-linecap="round" stroke-linejoin="round"><path d="M6 4h12l3 5-9 11L3 9z"></path><path d="M3 9h18M9 4l3 16 3-16"></path></symbol>
<symbol id="zap" viewBox="0 0 24 24" fill="none" stroke="currentColor" stroke-width="2" stroke-linecap="round" stroke-linejoin="round"><path d="M13 3 4 14h7l-1 7 9-11h-7z"></path></symbol>
<symbol id="droplet" viewBox="0 0 24 24" fill="none" stroke="currentColor" stroke-width="2" stroke-linecap="round" stroke-linejoin="round"><path d="M12 3s6 7 6 11a6 6 0 0 1-12 0c0-4 6-11 6-11z"></path></symbol>
<symbol id="cog" viewBox="0 0 24 24" fill="none" stroke="currentColor" stroke-width="2" stroke-linecap="round" stroke-linejoin="round"><circle cx="12" cy="12" r="3.5"></circle><path d="M12 2.5v3M12 18.5v3M4.2 6.2l2.1 2.1M17.7 15.7l2.1 2.1M2.5 12h3M18.5 12h3M4.2 17.8l2.1-2.1M17.7 8.3l2.1-2.1"></path></symbol>
<symbol id="paint-roller" viewBox="0 0 24 24" fill="none" stroke="currentColor" stroke-width="2" stroke-linecap="round" stroke-linejoin="round"><rect x="3" y="6" width="14" height="6" rx="1"></rect><path d="M9 12v4h4v5"></path></symbol>
<symbol id="grid" viewBox="0 0 24 24" fill="none" stroke="currentColor" stroke-width="2" stroke-linecap="round" stroke-linejoin="round"><rect x="3" y="3" width="7" height="7"></rect><rect x="14" y="3" width="7" height="7"></rect><rect x="3" y="14" width="7" height="7"></rect><rect x="14" y="14" width="7" height="7"></rect></symbol>
<symbol id="stairs" viewBox="0 0 24 24" fill="none" stroke="currentColor" stroke-width="2" stroke-linecap="round" stroke-linejoin="round"><path d="M4 20v-4h4v-4h4V8h4V4"></path></symbol>
<symbol id="factory" viewBox="0 0 24 24" fill="none" stroke="currentColor" stroke-width="2" stroke-linecap="round" stroke-linejoin="round"><path d="M3 20V10l5 4v-4l5 4V6l6 4v10z"></path><path d="M3 20h18"></path></symbol>
<symbol id="building-2" viewBox="0 0 24 24" fill="none" stroke="currentColor" stroke-width="2" stroke-linecap="round" stroke-linejoin="round"><rect x="6" y="3" width="12" height="18"></rect><path d="M9 7h2M13 7h2M9 11h2M13 11h2M9 15h2M13 15h2"></path></symbol>
<symbol id="home" viewBox="0 0 24 24" fill="none" stroke="currentColor" stroke-width="2" stroke-linecap="round" stroke-linejoin="round"><path d="M3 11 12 3l9 8"></path><path d="M5 10v10h14V10"></path></symbol>
<symbol id="building" viewBox="0 0 24 24" fill="none" stroke="currentColor" stroke-width="2" stroke-linecap="round" stroke-linejoin="round"><rect x="4" y="9" width="7" height="12"></rect><rect x="13" y="4" width="7" height="17"></rect><path d="M6 12h3M6 15h3M6 18h3M15 8h3M15 11h3M15 14h3M15 17h3"></path></symbol>
<symbol id="message-circle" viewBox="0 0 24 24" fill="none" stroke="currentColor" stroke-width="2" stroke-linecap="round" stroke-linejoin="round"><path d="M21 12a8 8 0 1 1-3.5-6.6L21 4l-1 4.3A7.9 7.9 0 0 1 21 12z"></path></symbol>
<symbol id="map-pin" viewBox="0 0 24 24" fill="none" stroke="currentColor" stroke-width="2" stroke-linecap="round" stroke-linejoin="round"><path d="M12 21s7-6.5 7-11.5A7 7 0 0 0 5 9.5C5 14.5 12 21 12 21z"></path><circle cx="12" cy="9.5" r="2.3"></circle></symbol>
<symbol id="phone" viewBox="0 0 24 24" fill="none" stroke="currentColor" stroke-width="2" stroke-linecap="round" stroke-linejoin="round"><path d="M5 4h4l2 5-2.5 1.5a12 12 0 0 0 5 5L15 13l5 2v4a2 2 0 0 1-2 2A16 16 0 0 1 3 6a2 2 0 0 1 2-2z"></path></symbol>
<symbol id="printer" viewBox="0 0 24 24" fill="none" stroke="currentColor" stroke-width="2" stroke-linecap="round" stroke-linejoin="round"><path d="M6 9V3h12v6"></path><rect x="4" y="9" width="16" height="8" rx="1"></rect><path d="M6 17h12v4H6z"></path></symbol>
<symbol id="mail" viewBox="0 0 24 24" fill="none" stroke="currentColor" stroke-width="2" stroke-linecap="round" stroke-linejoin="round"><rect x="3" y="5" width="18" height="14" rx="1"></rect><path d="m4 6 8 7 8-7"></path></symbol>
<symbol id="clock" viewBox="0 0 24 24" fill="none" stroke="currentColor" stroke-width="2" stroke-linecap="round" stroke-linejoin="round"><circle cx="12" cy="12" r="9"></circle><path d="M12 7v5l4 2"></path></symbol>
<symbol id="check-circle" viewBox="0 0 24 24" fill="none" stroke="currentColor" stroke-width="2" stroke-linecap="round" stroke-linejoin="round"><circle cx="12" cy="12" r="9"></circle><path d="m8 12 3 3 5-6"></path></symbol>
<symbol id="shield-alert" viewBox="0 0 24 24" fill="none" stroke="currentColor" stroke-width="2" stroke-linecap="round" stroke-linejoin="round"><path d="M12 3 4 6v6c0 5 3.5 7.5 8 9 4.5-1.5 8-4 8-9V6z"></path><path d="M12 8v4M12 16h.01"></path></symbol>
<symbol id="mail-check" viewBox="0 0 24 24" fill="none" stroke="currentColor" stroke-width="2" stroke-linecap="round" stroke-linejoin="round"><rect x="3" y="5" width="18" height="14" rx="1"></rect><path d="m4 6 8 7 8-7"></path><path d="m14 16 2 2 4-4"></path></symbol>
<symbol id="ear" viewBox="0 0 24 24" fill="none" stroke="currentColor" stroke-width="2" stroke-linecap="round" stroke-linejoin="round"><path d="M7 10a5 5 0 0 1 10 0c0 4-3 4-3 8a3 3 0 0 1-6 0"></path><path d="M7 10c0 3 2 3 2 5"></path></symbol>
<symbol id="shield-check" viewBox="0 0 24 24" fill="none" stroke="currentColor" stroke-width="2" stroke-linecap="round" stroke-linejoin="round"><path d="M12 3 4 6v6c0 5 3.5 7.5 8 9 4.5-1.5 8-4 8-9V6z"></path><path d="m9 12 2 2 4-4"></path></symbol>
<symbol id="users" viewBox="0 0 24 24" fill="none" stroke="currentColor" stroke-width="2" stroke-linecap="round" stroke-linejoin="round"><circle cx="9" cy="8" r="3.2"></circle><path d="M3 20c0-3.5 2.7-6 6-6s6 2.5 6 6"></path><circle cx="17.5" cy="9" r="2.5"></circle><path d="M15.5 14c2.3.3 4 2 4 6"></path></symbol>
<symbol id="sparkles" viewBox="0 0 24 24" fill="none" stroke="currentColor" stroke-width="2" stroke-linecap="round" stroke-linejoin="round"><path d="M12 3v4M12 17v4M3 12h4M17 12h4M6 6l2.5 2.5M15.5 15.5 18 18M18 6l-2.5 2.5M8.5 15.5 6 18"></path></symbol>
<symbol id="chevron-right" viewBox="0 0 24 24" fill="none" stroke="currentColor" stroke-width="2" stroke-linecap="round" stroke-linejoin="round"><path d="m9 6 6 6-6 6"></path></symbol>
<symbol id="menu" viewBox="0 0 24 24" fill="none" stroke="currentColor" stroke-width="2" stroke-linecap="round" stroke-linejoin="round"><path d="M3 6h18M3 12h18M3 18h18"></path></symbol>
</svg>